<svg width="27" height="26" viewBox="0 0 27 26" fill="none" xmlns="http://www.w3.org/2000/svg">
<g clip-path="url(#clip0_147_247)">
<path d="M26.6673 13.2434C26.6673 12.1781 26.5788 11.4008 26.3874 10.5947H13.9387V15.4025H21.2458C21.0985 16.5974 20.303 18.3967 18.5351 19.6058L18.5103 19.7668L22.4463 22.7462L22.719 22.7727C25.2235 20.5127 26.6673 17.1875 26.6673 13.2434Z" fill="#4285F4"/>
<path d="M13.9386 25.9108C17.5185 25.9108 20.5238 24.7591 22.719 22.7727L18.535 19.6058C17.4154 20.3687 15.9127 20.9013 13.9386 20.9013C10.4324 20.9013 7.45647 18.6414 6.39565 15.5177L6.24016 15.5306L2.1474 18.6255L2.09387 18.7709C4.27422 23.0029 8.75282 25.9108 13.9386 25.9108Z" fill="#34A853"/>
<path d="M6.39573 15.5177C6.11582 14.7116 5.95383 13.8478 5.95383 12.9554C5.95383 12.0628 6.11582 11.1992 6.381 10.3931L6.37359 10.2214L2.22953 7.07678L2.09395 7.1398C1.19532 8.89599 0.679688 10.8681 0.679688 12.9554C0.679688 15.0426 1.19532 17.0146 2.09395 18.7708L6.39573 15.5177Z" fill="#FBBC05"/>
<path d="M13.9386 5.00937C16.4283 5.00937 18.1077 6.06018 19.0654 6.93833L22.8073 3.36839C20.5092 1.28115 17.5185 0 13.9386 0C8.75282 0 4.27422 2.90773 2.09387 7.13978L6.38093 10.3931C7.45647 7.26938 10.4324 5.00937 13.9386 5.00937Z" fill="#EB4335"/>
</g>
<defs>
<clipPath id="clip0_147_247">
<rect width="26" height="26" fill="white" transform="translate(0.679688)"/>
</clipPath>
</defs>
</svg>
