<svg width="51" height="51" viewBox="0 0 51 51" fill="none" xmlns="http://www.w3.org/2000/svg">
<path d="M10.037 14.5557L13.6915 36.9012C13.7944 37.5791 14.0932 38.2122 14.5511 38.7225C15.0091 39.2328 15.6062 39.5982 16.2691 39.7736C16.712 39.878 17.1919 39.9011 17.679 39.818L31.4566 37.5796C32.8585 37.3524 33.939 36.2764 34.2699 35.024C34.3913 34.5851 34.4225 34.071 34.3735 33.5921L30.6509 11.2305C30.5578 10.5501 30.2617 9.91351 29.8011 9.40407C29.3405 8.89463 28.7369 8.53602 28.0692 8.37513C27.6263 8.27082 27.1594 8.26871 26.6974 8.32172L12.9368 10.5642C12.0231 10.7092 11.2043 11.2111 10.6605 11.9596C10.1168 12.7081 9.89247 13.6419 10.037 14.5557ZM37.8637 13.6982C38.0765 12.7947 37.9216 11.8436 37.4332 11.0542C36.9448 10.2648 36.1628 9.70183 35.2593 9.48902L32.7894 8.90728L35.8908 29.9769" fill="#DD0606"/>
</svg>
