<svg width="51" height="51" viewBox="0 0 51 51" fill="none" xmlns="http://www.w3.org/2000/svg">
<path d="M10.0371 14.5557L13.6915 36.9012C13.7944 37.5791 14.0933 38.2122 14.5512 38.7225C15.0092 39.2328 15.6063 39.5982 16.2691 39.7737C16.712 39.878 17.192 39.9011 17.679 39.8181L31.4567 37.5796C32.8586 37.3524 33.939 36.2765 34.27 35.024C34.3913 34.5851 34.4225 34.0711 34.3735 33.5921L30.6509 11.2306C30.5579 10.5501 30.2617 9.91353 29.8012 9.40409C29.3406 8.89465 28.737 8.53604 28.0693 8.37515C27.6264 8.27083 27.1594 8.26873 26.6975 8.32173L12.9369 10.5642C12.0231 10.7092 11.2044 11.2111 10.6606 11.9596C10.1168 12.7081 9.89253 13.6419 10.0371 14.5557ZM37.8637 13.6982C38.0765 12.7947 37.9217 11.8436 37.4333 11.0542C36.9449 10.2649 36.1629 9.70184 35.2593 9.48903L32.7894 8.90729L35.8908 29.9769" fill="#AFAFAF"/>
</svg>
