<svg width="35" height="35" viewBox="0 0 35 35" fill="none" xmlns="http://www.w3.org/2000/svg">
<path d="M18.3648 33.9179L18.3488 33.9208L18.2452 33.9719L18.216 33.9777L18.1956 33.9719L18.0921 33.9208C18.0765 33.916 18.0649 33.9184 18.0571 33.9281L18.0513 33.9427L18.0265 34.5669L18.0338 34.5961L18.0483 34.615L18.2 34.7229L18.2219 34.7288L18.2394 34.7229L18.391 34.615L18.4085 34.5917L18.4144 34.5669L18.3896 33.9442C18.3857 33.9286 18.3774 33.9199 18.3648 33.9179ZM18.7513 33.7531L18.7323 33.7561L18.4625 33.8917L18.4479 33.9063L18.4435 33.9223L18.4698 34.5494L18.4771 34.5669L18.4888 34.5771L18.7819 34.7127C18.8004 34.7176 18.8145 34.7137 18.8242 34.7011L18.83 34.6806L18.7804 33.7852C18.7756 33.7677 18.7658 33.757 18.7513 33.7531ZM17.7085 33.7561C17.7021 33.7522 17.6944 33.7509 17.6871 33.7525C17.6798 33.7542 17.6733 33.7586 17.6692 33.7648L17.6604 33.7852L17.6108 34.6806C17.6118 34.6981 17.6201 34.7098 17.6356 34.7156L17.6575 34.7127L17.9506 34.5771L17.9652 34.5654L17.971 34.5494L17.9958 33.9223L17.9915 33.9048L17.9769 33.8902L17.7085 33.7561Z" fill="white"/>
<path d="M14.7497 6.54938C14.8605 5.39 16.0709 4.4348 17.2915 5.13188C19.829 6.61792 22.2236 8.31105 24.5395 10.1208C27.3978 12.3783 29.6917 14.506 31.3163 16.205C32.0207 16.9444 31.9551 18.1125 31.2813 18.8183C29.6727 20.4825 27.971 22.0542 26.1845 23.5258C23.3582 25.8402 20.4313 28.0831 17.2449 29.8813C16.1642 30.4908 14.9932 29.7938 14.7847 28.7131L14.7599 28.5483L14.4288 23.3363C11.7805 23.3917 9.21675 24.3017 7.16633 25.9948L6.77987 26.3185L6.59321 26.4702L6.233 26.7502L6.058 26.8785L5.72258 27.1119C5.61831 27.1802 5.5123 27.2459 5.40466 27.3088L5.10425 27.4706C3.6955 28.1663 2.91675 27.5508 2.91675 24.7917C2.91675 18.3692 7.64904 12.654 14.0467 11.7877L14.4245 11.7425L14.7497 6.54938ZM17.5336 8.69896L17.2536 13.7623C17.2442 13.9354 17.1734 14.0994 17.0539 14.225C16.9344 14.3507 16.7741 14.4296 16.6017 14.4477L14.617 14.6548C10.1472 15.1885 6.6005 18.6827 5.94279 23.2502C8.12881 21.6382 10.7234 20.6721 13.4313 20.4619L14.0103 20.4283L16.4953 20.3758C16.6843 20.3718 16.8675 20.4413 17.0063 20.5697C17.145 20.6981 17.2285 20.8754 17.239 21.0642L17.5263 26.3083C19.864 24.8194 22.0924 23.1058 24.328 21.2771C25.7715 20.0772 27.1617 18.8145 28.4945 17.4927L28.1182 17.1194L27.3074 16.3421C25.841 14.968 24.3161 13.6577 22.737 12.4148C21.0626 11.0942 19.3261 9.85417 17.5336 8.69896Z" fill="white"/>
</svg>
