<svg width="30" height="30" viewBox="0 0 30 30" fill="none" xmlns="http://www.w3.org/2000/svg">
<path fill-rule="evenodd" clip-rule="evenodd" d="M27 15C27 18.1826 25.7357 21.2348 23.4853 23.4853C21.2348 25.7357 18.1826 27 15 27C11.8174 27 8.76516 25.7357 6.51472 23.4853C4.26428 21.2348 3 18.1826 3 15C3 11.8174 4.26428 8.76516 6.51472 6.51472C8.76516 4.26428 11.8174 3 15 3C18.1826 3 21.2348 4.26428 23.4853 6.51472C25.7357 8.76516 27 11.8174 27 15ZM18.75 11.25C18.75 12.2446 18.3549 13.1984 17.6517 13.9017C16.9484 14.6049 15.9946 15 15 15C14.0054 15 13.0516 14.6049 12.3483 13.9017C11.6451 13.1984 11.25 12.2446 11.25 11.25C11.25 10.2554 11.6451 9.30161 12.3483 8.59835C13.0516 7.89509 14.0054 7.5 15 7.5C15.9946 7.5 16.9484 7.89509 17.6517 8.59835C18.3549 9.30161 18.75 10.2554 18.75 11.25ZM15 18C13.6056 17.9987 12.2301 18.322 10.9823 18.9442C9.73442 19.5664 8.64852 20.4706 7.8105 21.585C8.72269 22.5838 9.8333 23.3811 11.0713 23.9261C12.3093 24.4711 13.6474 24.7517 15 24.75C16.3526 24.7517 17.6907 24.4711 18.9287 23.9261C20.1667 23.3811 21.2773 22.5838 22.1895 21.585C21.3515 20.4706 20.2656 19.5664 19.0177 18.9442C17.7699 18.322 16.3944 17.9987 15 18Z" fill="#FAFAFA"/>
</svg>
